<?xml version="1.0" encoding="utf-8"?>
<!-- Generator: Adobe Illustrator 19.2.0, SVG Export Plug-In . SVG Version: 6.00 Build 0)  -->
<svg version="1.1" id="Layer_1" xmlns="http://www.w3.org/2000/svg" xmlns:xlink="http://www.w3.org/1999/xlink" x="0px" y="0px"
	 viewBox="0 0 32 32" style="enable-background:new 0 0 32 32;" xml:space="preserve">
<style type="text/css">
	.st0{fill:#3DBDE7;}
</style>
<g>
	<path class="st0" d="M28.1,10.5C26,5.7,21.2,2.7,16,2.7C8.7,2.7,2.7,8.7,2.7,16s6,13.3,13.3,13.3s13.3-6,13.3-13.3
		C29.3,14.1,28.9,12.3,28.1,10.5z M20.5,11.2h-2.7c0,0-0.9-0.1-0.9,0.9V12v1.8h3.6L20,16.6h-3.1v8.5h-3.7v-8.5h-1.8v-2.7h1.8v-2.3
		c0,0,0.1-3.4,3.2-3.4h4.1V11.2z"/>
</g>
</svg>
