<?xml version="1.0" encoding="utf-8"?>
<!-- Generator: Adobe Illustrator 19.2.0, SVG Export Plug-In . SVG Version: 6.00 Build 0)  -->
<svg version="1.1" id="Layer_1" xmlns="http://www.w3.org/2000/svg" xmlns:xlink="http://www.w3.org/1999/xlink" x="0px" y="0px"
	 viewBox="0 0 32 32" style="enable-background:new 0 0 32 32;" xml:space="preserve">
<style type="text/css">
	.st0{fill:#3DBDE7;}
</style>
<g>
	<path class="st0" d="M16,13.8c-1.2,0-2.3,1-2.3,2.3s1,2.3,2.3,2.3s2.3-1,2.3-2.3l0,0C18.2,14.8,17.2,13.8,16,13.8z"/>
	<path class="st0" d="M19.7,10.7h-7.4c-0.9,0-1.6,0.7-1.7,1.6v7.6c0,0.9,0.8,1.6,1.7,1.6h7.4c0.9,0,1.6-0.7,1.7-1.6v-7.6
		C21.3,11.3,20.6,10.6,19.7,10.7z M16,19.4L16,19.4c-1.9,0-3.4-1.5-3.4-3.4s1.5-3.4,3.4-3.4s3.4,1.5,3.4,3.3
		C19.4,17.9,17.9,19.4,16,19.4z M19.6,13.3c-0.4,0-0.8-0.4-0.8-0.8s0.4-0.8,0.8-0.8s0.8,0.4,0.8,0.8S20.1,13.3,19.6,13.3z"/>
	<path class="st0" d="M28.1,9.9C26,5.2,21.2,2.1,16,2.1C8.7,2.1,2.7,8,2.7,15.4c0,7.3,5.9,13.3,13.3,13.3s13.3-5.9,13.3-13.3
		C29.3,13.5,28.9,11.7,28.1,9.9z M22.5,12.2v7.6c0,1.5-1.2,2.7-2.8,2.7l0,0h-7.4c-1.5,0-2.8-1.2-2.8-2.7l0,0v-7.6
		c0-1.5,1.3-2.7,2.8-2.7l0,0h7.4C21.2,9.5,22.4,10.7,22.5,12.2L22.5,12.2z"/>
</g>
</svg>
