<?xml version="1.0" encoding="utf-8"?>
<!-- Generator: Adobe Illustrator 19.2.0, SVG Export Plug-In . SVG Version: 6.00 Build 0)  -->
<svg version="1.1" id="Layer_1" xmlns="http://www.w3.org/2000/svg" xmlns:xlink="http://www.w3.org/1999/xlink" x="0px" y="0px"
	 viewBox="0 0 32 32" style="enable-background:new 0 0 32 32;" xml:space="preserve">
<style type="text/css">
	.st0{fill:#3DBDE7;}
</style>
<g>
	<polygon class="st0" points="14.5,17.8 18.3,15.9 14.5,13.9 	"/>
	<path class="st0" d="M28.1,10.5C26,5.8,21.2,2.7,16,2.7C8.7,2.7,2.7,8.7,2.7,16S8.6,29.3,16,29.3s13.3-6,13.3-13.3
		C29.3,14.1,28.9,12.3,28.1,10.5z M22.9,18.8c0,1.1-0.9,2-2,2h-9.8c-1.1,0-2-0.9-2-2v-5.6c0-1.1,0.9-2,2-2h9.8l0,0c1.1,0,2,0.9,2,2
		V18.8z"/>
</g>
</svg>
